<svg xmlns="http://www.w3.org/2000/svg" width="100" height="12" viewBox="0 0 100 12">
    <path fill="#F96702" fill-rule="evenodd" d="M45.089 6.679c0 1.818-1.06 2.915-2.55 2.915-1.49 0-2.55-1.097-2.55-2.915V.262h-2.698v6.314c0 3.325 2.12 5.424 5.248 5.424 3.129 0 5.248-2.099 5.248-5.424V.262h-2.698v6.417zm50.378.587l-1.62-4.021-1.622 4.021h3.242zM100 11.738h-2.73l-.944-2.342h-4.96l-.943 2.342h-2.73L92.611.262h2.417L100 11.738zM83.996 4.221c0-.507-.206-.981-.519-1.252-.353-.306-.86-.465-1.566-.465h-2.58V5.95h2.588c.692 0 1.184-.154 1.534-.45.328-.279.543-.758.543-1.279zm-.266 3.656l3.323 3.861H83.91l-3.093-3.623h-1.486v3.623h-2.644V.262h5.371c1.497 0 2.596.36 3.385 1.024.789.664 1.247 1.684 1.247 2.898 0 1.52-.655 3.099-2.961 3.693zM15.889.262H13.19v11.476h8.162V9.403H15.89V.262zM6.236 9.576C4.244 9.576 2.8 8.027 2.8 5.999s1.445-3.574 3.437-3.574c.96 0 1.751.336 2.443.982l1.739-1.713C9.368.626 7.902 0 6.207 0 2.702 0 0 2.636 0 6c0 3.365 2.702 6 6.207 6 1.77 0 3.322-.705 4.378-1.889l-1.73-1.704c-.698.76-1.53 1.169-2.619 1.169zM59.41 6c0-2.072-1.519-3.444-3.781-3.444h-1.78v6.888h1.78c2.262 0 3.781-1.372 3.781-3.444zm2.8 0c0 3.432-2.568 5.738-6.39 5.738H51.15V.262h4.555C59.528.262 62.21 2.568 62.21 6zm-30.365.018c0-2.093-1.39-3.611-3.352-3.611-1.96 0-3.352 1.518-3.352 3.611 0 2.072 1.392 3.576 3.352 3.576 1.962 0 3.352-1.504 3.352-3.576zm2.8-.001c0 3.355-2.578 5.983-6.152 5.983-3.573 0-6.151-2.628-6.151-5.983 0-3.374 2.578-6.017 6.15-6.017 3.575 0 6.153 2.643 6.153 6.017zm28.792 5.721h10.091V9.366h-8.494a7.454 7.454 0 0 1-1.597 2.372zm8.657-4.601V4.788h-6.508c.057.402.095.812.095 1.239 0 .381-.03.749-.073 1.11h6.486zM63.307.262h10.167v2.372h-8.486A7.547 7.547 0 0 0 63.307.262z"/>
</svg>
